Coordinates
version=1
nRows=5
nColumns=40
inDegrees=yes

Units are S.I. units (second, meters, Newtons, ...)
Angles are in degrees.

endheader
time	pelvis_tilt	pelvis_list	pelvis_rotation	pelvis_tx	pelvis_ty	pelvis_tz	hip_flexion_r	hip_adduction_r	hip_rotation_r	knee_angle_r	knee_angle_r_beta	ankle_angle_r	subtalar_angle_r	mtp_angle_r	hip_flexion_l	hip_adduction_l	hip_rotation_l	knee_angle_l	knee_angle_l_beta	ankle_angle_l	subtalar_angle_l	mtp_angle_l	lumbar_extension	lumbar_bending	lumbar_rotation	arm_flex_r	arm_add_r	arm_rot_r	elbow_flex_r	pro_sup_r	wrist_flex_r	wrist_dev_r	arm_flex_l	arm_add_l	arm_rot_l	elbow_flex_l	pro_sup_l	wrist_flex_l	wrist_dev_l
     23.60100000	     -3.04204139	     -2.08672340	     -1.97665281	      1.12753256	      0.91442962	      0.43258346	     29.44222603	     -3.41718447	    -14.44149006	     17.91422882	     17.91422882	      2.69779624	     -0.86236935	      8.32809205	     -5.70351526	     -1.69843144	    -16.53413789	      9.84501824	      9.84501824	     19.40934152	     -4.28982520	     -7.84147168	     -9.63587957	      4.13006374	      1.87709648	    -24.41882352	    -13.01468827	    -22.07769552	     19.73477879	     47.96888772	      0.00000000	      0.00000000	     27.57447208	    -16.67761278	     -6.12820193	     89.89155643	     47.60378914	      0.00000000	      0.00000000
     23.61200000	     -3.01598153	     -2.39762354	     -2.14817947	      1.12911961	      0.91256028	      0.43529697	     29.24601276	     -2.73706904	    -14.54833337	     18.16251285	     18.16251285	      2.44483644	     -0.90633080	      7.97411771	     -6.30633616	     -2.21434409	    -16.53813210	     10.25413478	     10.25413478	     19.93237336	     -4.67871105	     -7.65089265	     -9.53107839	      4.47301431	      2.17054336	    -24.47820082	    -13.01561682	    -22.00953236	     19.67435468	     47.96058225	      0.00000000	      0.00000000	     27.64456734	    -16.67232138	     -6.33157118	     90.79217715	     47.64072104	      0.00000000	      0.00000000
     23.62300000	     -3.17820391	     -2.60491287	     -2.28658283	      1.13063677	      0.91050882	      0.43808067	     29.29592219	     -2.19757987	    -14.33524307	     18.73312072	     18.73312072	      1.72651402	     -1.55905483	      5.95956014	     -6.41798727	     -2.73096220	    -16.50927206	     11.25202446	     11.25202446	     20.88530500	     -4.98097359	     -6.53158359	     -9.27521759	      4.60137578	      2.28865343	    -24.24698477	    -12.91946609	    -21.82588558	     19.67924236	     47.93236316	      0.00000000	      0.00000000	     26.95431286	    -16.65123029	     -6.75468261	     93.82209270	     47.74419167	      0.00000000	      0.00000000
     23.63400000	     -3.08904378	     -2.99820509	     -2.39867922	      1.13248786	      0.90926575	      0.44088646	     29.06311200	     -1.61829700	    -14.42458444	     19.67646438	     19.67646438	      1.70817428	     -1.88111504	      5.36970551	     -7.10082064	     -3.36032590	    -16.51048895	     11.66078321	     11.66078321	     21.14134581	     -5.28038861	     -6.33968977	     -9.20103704	      5.06691644	      2.47013620	    -23.90005291	    -12.94575451	    -21.78253681	     19.74427137	     47.92735214	      0.00000000	      0.00000000	     26.68036738	    -16.68315493	     -6.83641705	     94.16231324	     47.75830662	      0.00000000	      0.00000000
     23.64500000	     -3.09092036	     -3.17889131	     -2.40763039	      1.13425442	      0.90787496	      0.44370828	     28.80265162	     -1.16248638	    -13.91885620	     20.29587883	     20.29587883	     -0.55239270	     -3.96617415	     -1.71632632	     -7.06253887	     -4.02574296	    -16.67270879	     13.40342685	     13.40342685	     22.79244147	     -4.91454260	     -3.59165076	     -9.10343901	      5.17832269	      1.48544260	    -22.32679596	    -13.38003763	    -20.81476114	     18.56958290	     47.86864947	      0.00000000	      0.00000000	     24.91480915	    -17.23337264	     -8.45858256	     97.58407143	     48.03793252	      0.00000000	      0.00000000
